<?xml version="1.0" encoding="UTF-8"?>
<svg width="101px" height="54px" viewBox="0 0 101 54" version="1.1" xmlns="http://www.w3.org/2000/svg" xmlns:xlink="http://www.w3.org/1999/xlink">
    <!-- Generator: Sketch 46.1 (44463) - http://www.bohemiancoding.com/sketch -->
    <title>GO Logo</title>
    <desc>Created with Sketch.</desc>
    <defs></defs>
    <g id="Page-1" stroke="none" stroke-width="1" fill="none" fill-rule="evenodd">
        <g id="GO-Logo" transform="translate(2.000000, 2.000000)" stroke="#FFFFFF" stroke-width="4">
            <path d="M65.5817227,30.6667167 C67.1364031,32.2221449 69.2042791,33.0787974 71.4025121,33.0787974 C73.6021174,33.0787974 75.6699933,32.2221449 77.2246738,30.6667167 C78.7793542,29.1099156 79.6355948,27.0424178 79.6355948,24.8417545 C79.6355948,22.6410913 78.7793542,20.5735935 77.2246738,19.0167924 C75.6699933,17.4613642 73.6021174,16.6047117 71.4025121,16.6047117 C69.2042791,16.6047117 67.1364031,17.4613642 65.5817227,19.0167924 L42.2944483,42.315268 C37.6290348,46.9829256 31.4267791,49.552883 24.8293355,49.552883 C18.2332641,49.552883 12.0296363,46.9829256 7.36422279,42.315268 C2.70018144,37.6476104 0.130087464,31.4423715 0.130087464,24.8417545 C0.130087464,18.2411376 2.70018144,12.0358987 7.36422279,7.36824107 C12.0296363,2.70058348 18.2332641,0.130626128 24.8293355,0.130626128 C31.4267791,0.130626128 37.6290348,2.70058348 42.2944483,7.36824107 L36.4722866,13.1932032 C33.3629257,10.0809738 29.2271739,8.36766894 24.8293355,8.36766894 C20.4314972,8.36766894 16.2971175,10.0809738 13.1863844,13.1932032 C10.0770235,16.3040597 8.36317015,20.4418008 8.36317015,24.8417545 C8.36317015,29.2417082 10.0770235,33.3780766 13.1863844,36.4916788 C16.2971175,39.6025353 20.4314972,41.3158402 24.8293355,41.3158402 C29.2271739,41.3158402 33.3629257,39.6025353 36.4722866,36.4903059 L59.759561,13.1932032 C62.8689219,10.0809738 67.0046738,8.36766894 71.4025121,8.36766894 C75.8003505,8.36766894 79.9361023,10.0809738 83.0454632,13.1918303 C86.1561963,16.3040597 87.8686775,20.4418008 87.8686775,24.8417545 C87.8686775,29.2417082 86.1561963,33.3780766 83.0468354,36.4903059 C79.9361023,39.6025353 75.8003505,41.3158402 71.4025121,41.3158402 C67.0046738,41.3158402 62.8689219,39.6025353 59.759561,36.4903059 L53.9373994,42.315268 C58.6028129,46.9829256 64.8050685,49.552883 71.4025121,49.552883 C77.9999557,49.552883 84.2022114,46.9829256 88.8676249,42.315268 C93.5330384,37.6476104 96.1017602,31.4423715 96.1017602,24.8417545 C96.1017602,18.2411376 93.5330384,12.0358987 88.8676249,7.36824107 C84.2022114,2.70058348 77.9999557,0.130626128 71.4025121,0.130626128 C64.8050685,0.130626128 58.6028129,2.70058348 53.9373994,7.36824107 L30.6514972,30.6667167 C29.0968167,32.2221449 27.0289408,33.0787974 24.8293355,33.0787974 C22.6311025,33.0787974 20.5632265,32.2221449 19.0085461,30.6667167 C17.4538656,29.1099156 16.5962528,27.0424178 16.5962528,24.8417545 C16.5962528,22.6410913 17.4538656,20.5735935 19.0071739,19.0167924 C20.5632265,17.4613642 22.6311025,16.6047117 24.8293355,16.6047117 C27.0289408,16.6047117 29.0968167,17.4613642 30.6514972,19.0167924" id="Stroke-23"></path>
        </g>
    </g>
</svg>